<?xml version="1.0" encoding="UTF-8"?>
<!DOCTYPE svg PUBLIC "-//W3C//DTD SVG 1.1//EN" "http://www.w3.org/Graphics/SVG/1.1/DTD/svg11.dtd">
<!-- Creator: CorelDRAW 2020 (64-Bit) -->
<svg xmlns="http://www.w3.org/2000/svg" xml:space="preserve" width="9cm" height="9cm" version="1.1" style="shape-rendering:geometricPrecision; text-rendering:geometricPrecision; image-rendering:optimizeQuality; fill-rule:evenodd; clip-rule:evenodd"
viewBox="0 0 9000 9000"
 xmlns:xlink="http://www.w3.org/1999/xlink"
 xmlns:xodm="http://www.corel.com/coreldraw/odm/2003">
 <defs>
  <style type="text/css">
   <![CDATA[
    .fil0 {fill:#9D45AC}
    .fil3 {fill:#B55FB3}
    .fil2 {fill:#C63D0C}
    .fil4 {fill:#DF9048}
    .fil5 {fill:#E173B7}
    .fil1 {fill:#F75718}
   ]]>
  </style>
 </defs>
 <g id="Слой_x0020_1">
  <metadata id="CorelCorpID_0Corel-Layer"/>
  <g id="_1581102912352">
   <path class="fil0" d="M4609.57 4297.86c9.69,-17.46 8.75,-51.47 21.76,-65.84 13.62,4.47 32.8,59.99 61.98,94.59 68.75,81.53 87.09,80.98 165.29,126.32 170.17,98.67 362.3,98.12 547.42,115.26 159.92,14.8 324.25,15.93 485.31,19.45 165.3,3.63 330.69,2.8 496.17,2.68 573.43,-0.46 1149.32,-25.92 1723.52,-26.37 82.5,-0.07 163.88,5 245.9,6.68 -1.71,-5.28 -2.77,-10.16 -5.21,-15.72 -26.64,-60.58 -68.59,-127.65 -105.21,-174.41l-25 -34.82c-31.1,-45.64 -120.01,-140.55 -162.74,-186.24l-274.92 -257.3c-5.25,-4.41 -4.13,-4.48 -9.39,-8.9l-114.34 -90.97c-24.85,-23.82 -135.89,-99.07 -170.78,-124.3 -97.25,-70.29 -317.87,-199.13 -413.75,-238.1 -7.5,-3.05 -14.13,-6.63 -23.48,-10.63 -8.6,-3.66 -17.29,-7.87 -25.09,-11.5 -7.98,-3.71 -16.65,-6.54 -23.94,-9.94 -8.72,-4.07 -16.27,-7.57 -25.39,-11.05 -80.5,-30.74 -176.29,-68.77 -257.48,-88.41l-335.06 -66.36c-4.86,-0.85 -10.25,0.28 -15.08,-0.23l-134.92 -13.26c-13.92,0.09 -19.16,-3.18 -30.38,-3.44 -10.06,-0.24 -20.47,0.09 -30.58,0.17 -13.57,0.09 -16.84,-3.49 -30.41,-3.38 -16.93,0.11 -47.09,2.86 -62.26,-1.29 -26.54,-7.27 -93.47,-1.98 -124.91,-1.98 -23.14,0 -37.81,-3.32 -60.94,-3.32l-158.95 0.14c-11.2,-0.27 -16.46,-3.54 -30.38,-3.44 -43.73,0.25 -81.6,-2.2 -124.13,-3.18 -11.11,-0.25 -14.79,-3.57 -28.2,-3.46l-91.42 -6.59c-8.57,-0.99 -4.47,-2.39 -13.04,-3.33 -4.79,-0.54 -10.45,0.56 -15.25,0.03l-29.59 -4.67c-7.47,-2.01 -21.03,-4 -27.17,-5.04 -38.41,-6.46 -76.78,-11.14 -114.61,-20.98 -7.21,-1.88 -19.83,-5.59 -28.85,-6.09 -28.91,3.46 -59.34,9.78 -88.94,14.26 -187.36,28.31 -438.84,25.76 -609.53,-63.86 -213.94,-112.31 -293.72,-287.6 -250.5,-612.86l17.72 -119.06 -38.05 71.51c-24.18,54.43 -34.64,76.77 -55.68,140.51 -12.76,38.65 -23.12,82.99 -32.4,126.26 -8.98,41.93 -16,100.48 -19.66,148.95 -3.02,39.9 -2.86,131.61 1.13,166.73 11.55,101.84 6.75,99.64 32.17,216.06 10.95,50.17 36.4,141.85 53.61,186.71l29.68 84.01c15.49,47.25 48.22,129.53 62.43,173.3l52.36 142.26c41.83,105.08 68,172.88 111.85,273.66l62.97 126.08c12.08,18.42 26.36,48.36 46.28,64.72l0.06 -0.02z"/>
   <path class="fil1" d="M688.12 4126.12c13.54,39.91 35.67,69.32 56.04,100.34 15.63,23.82 50.55,66.08 66.43,84.41l163.91 171.2c40.21,40.74 131.26,123.05 171.36,156.55l77.57 67.44c7.48,5.77 12.81,10.37 19.66,16.46l180.59 145.82c13.66,10.4 26.38,19.94 40.61,30.94l358.5 199.63c129.32,76.84 231.23,109.5 367.38,139.74 12.61,2.8 14.77,0.72 26.46,6.1 99.25,45.7 143.68,62.59 251.36,84.45 16.51,3.35 35.56,7.03 53.34,11.55 18.89,4.81 36,4.35 54.84,9.29l312.06 38.43c9.43,1.08 21.04,-1.42 30.31,0.24l87.21 6.37c13.25,-0.08 18.16,2.83 28.21,3.44 20.78,1.27 41.29,-1.81 59.31,2.47 17.07,4.06 42.36,-1.37 60.47,0.71 48.73,5.6 73.3,2.07 121.94,3.19 11.12,0.25 14.8,3.57 28.2,3.46l304.73 3.21c12.4,0.01 14.97,3.52 28.21,3.44 28.85,-0.2 29.88,-2.5 57.14,5.78 24.29,7.4 20.54,6.1 42.99,29.83 9.38,-3.76 19.48,-12.71 31,-17.87 11.22,-5.03 23.82,-10.35 36.23,-14.5 74.42,-24.88 171.93,-39.17 248.31,-39.97 148.62,-1.58 272.39,15.78 399.46,87.36 12.5,7.05 21.91,14.81 31.97,21.15 11.26,7.09 20.77,13.94 30.55,23.29 52.03,49.67 68.6,60.28 113.14,139.18 18.89,33.46 46.88,115.12 59.88,154.12 19.46,58.44 45.79,116.93 49.42,202.93l5.44 4.71c11.07,-10.41 34.89,-61.99 41.82,-78.52l11.58 -32.07c1.62,-4.95 2.3,-8.51 3.93,-13.9 17.47,-57.64 22.34,-108.02 27.39,-173.65 9.03,-117.46 -24.93,-308.84 -52.97,-415.78l-20.55 -74.72c-10.53,-41.16 -26.5,-79.74 -39.5,-118.76 -5.49,-16.47 -10.44,-30.47 -16.64,-47.56l-207.42 -538.95c-1.36,-6.24 -0.16,-6.05 -3.5,-11.24l-35.73 -74.89 -58.94 -59.02c-7.19,-7.18 -12.69,-12.44 -19.8,-19.51 -7.26,-7.23 -12.75,-12.1 -19.61,-19.97 -31.39,-36.09 -59.54,-58.29 -95.75,-99.73 -97.03,-111.06 -188.24,-176.15 -321.3,-193.62 -107.75,-14.13 -149.89,-1.5 -248.38,0.28 -83.96,1.52 -167.62,9.53 -252.5,9.91 -85.59,0.39 -171.19,0.89 -256.79,0.91 -467.11,0.06 -938.67,12.33 -1405.8,13.25 -129.06,0.25 -251.28,-4.66 -380.83,-7.32 -83.64,-1.72 -168.84,-5.92 -252.43,-5.82 -51.04,0.06 -420.83,-41.78 -446.83,58.2 -2.2,8.45 -0.29,9.71 -3.64,17.59l-0.04 0z"/>
   <path class="fil2" d="M688.12 4126.12c3.35,-7.88 1.44,-9.14 3.64,-17.59 26,-99.98 395.79,-58.14 446.82,-58.2 83.6,-0.1 168.8,4.1 252.44,5.82 129.54,2.66 251.76,7.59 380.83,7.32 467.13,-0.92 938.69,-13.19 1405.8,-13.25 85.6,-0.02 171.2,-0.52 256.79,-0.91 84.88,-0.38 168.53,-8.39 252.49,-9.91 98.5,-1.78 140.65,-14.43 248.39,-0.28 133.07,17.47 224.27,82.56 321.3,193.62 36.21,41.43 64.36,63.64 95.75,99.73 6.84,7.87 12.34,12.74 19.61,19.97 7.11,7.07 12.61,12.33 19.79,19.51l58.95 59.02c-1.74,-11.17 -3.41,-11.84 -6.49,-19.84l-61.85 -160.94c-3.13,-7.8 -5.78,-12.02 -8.62,-20.02l-13 -43.13c-5.03,-15.31 -8.72,-26.69 -13.75,-42.01l-21.76 -62.95c-27.24,-83.07 -67.51,-184.31 -100.45,-261.18 -3.3,-7.7 -4.68,-12.51 -8.23,-20.62l-41.79 -95.37c-22.85,-52.2 -52.02,-115.38 -79.35,-164.12l-19.58 -36.45c-4.2,-7.56 -6.36,-9.16 -10.31,-17.42 -3.55,-7.42 -4.81,-8.86 -9.28,-15.68l-39.12 -66.35c-4.15,-6.27 -6.75,-10.23 -10.87,-16.56l-69.47 -89.69c-24.48,-28.19 -53.1,-47.82 -80.92,-68.98 -10.02,-7.62 -16.37,-15.49 -26.08,-23.24 -13.05,-10.42 -13.9,-12.5 -23.72,-26.84 -19.18,-28.02 -53.51,-61.99 -77.56,-74.06 -49.53,-24.87 -86.78,-36.55 -139.5,-42.71 -85.71,-10.04 -83.42,-43 -224.2,-43 -20.6,0 -64.12,-3.52 -81.82,1.33l-220.75 15.11c-10.67,0.25 -9.8,2.97 -19.42,3.57l-59.01 2.94c-20,3.57 -141.28,1.75 -167.62,-2.91 -9.67,-1.71 -11.58,2.27 -19.35,3.17 -40.47,4.68 -85.29,-1.09 -126.31,-0.14l-143.63 3.32c-9.62,0.6 -8.76,3.32 -19.42,3.57 -41.03,0.95 -85.84,-4.81 -126.31,-0.14l-121.87 3.33c-16.97,-0.01 -26.76,3.46 -41.31,3.35 -27.57,-0.19 -55.15,-0.05 -82.73,-0.05 -30.22,0 -52.46,3.32 -82.69,3.32 -180.23,0 -357.32,11.4 -537.52,9.93 -15.7,-0.13 -24.13,3.34 -41.34,3.33 -28.3,-0.05 -56.58,0 -84.87,0 -29.78,0 -51.73,3.32 -80.52,3.32 -28.3,0 -56.59,0.04 -84.87,0 -16.44,-0.03 -24.82,3.46 -39.14,3.35 -12.59,-0.1 -29.26,-1.46 -41.39,-0.05 -8.13,0.94 -7.1,3.22 -17.31,3.46l-43.68 -0.25c-9.63,0.59 -8.75,3.32 -19.42,3.57 -13.76,0.31 -27.77,-0.58 -41.52,-0.27l-39.09 3.44c-29.44,0 -52.14,3.49 -82.72,3.27l-263.37 13.17c-9.62,0.59 -8.75,3.32 -19.42,3.57 -14.3,0.32 -29.53,-1.12 -43.69,-0.25l-119.62 6.73c-29.26,-0.24 -85.43,6.76 -121.86,6.63l-82.22 4.04c-12.12,2.88 -24.46,2.6 -39.64,2.6 -16.97,-0.02 -26.76,3.46 -41.32,3.35 -30.57,-0.22 -53.28,3.27 -82.72,3.27 0.26,17.43 6.74,30.45 10.88,43.07l29.6 74.2c27.06,61.79 55.9,111.55 84.43,169.61l26.89 48.52c4.59,7.4 4.43,9.48 8.67,16.62l18.51 31.46c7.45,11.13 10.83,19.83 18.54,31.41l55.41 94.52c6.73,10.73 12.67,19.15 19.64,29.75 3.46,5.26 6.76,9.44 9.78,14.93l28.31 46.34c29.15,44.38 57.74,92.38 89.2,132.55 10.88,13.89 18.52,30.38 30.16,43.54l41.65 55.85c4.23,5.43 5.28,8.86 10.14,14.38l21.49 26.9c12.63,16.05 35.42,34.94 45.38,50.2l19.71 29.62c4.13,4.94 5.94,9.54 10.07,14.47 7.87,9.4 13.04,21.31 24.34,22.44l-0.01 -0.05z"/>
   <path class="fil3" d="M4609.57 4297.86c2.42,17.28 4.15,32.49 6.96,49.69 7.53,46.14 21.39,92.72 32.51,136.03 12.6,49.11 30.81,94 46.87,140.65 3.18,9.22 4.22,13.1 7.66,21.48l129.79 296.04c14.08,28.53 28.21,59.3 44.37,84.82 16.51,26.06 29.71,55.25 46.84,81.09l19.59 33.15c14.38,21.63 27.1,41.12 41.35,62.93l30.43 43.12c5.07,6.94 6.77,6.89 12.02,14.84 5.11,7.75 5.53,7.26 10.71,13.49 47.62,57.27 77.4,90.86 135.26,135.32 17.82,13.7 38.05,24.67 57.75,34.65 20.26,10.28 38.99,19.28 62.08,28.06 44.75,17.03 89.61,29.35 136.75,40.29 24.06,5.57 49,8.11 71.76,13.32 22.2,5.09 53.52,3.61 74.4,9.34 23.17,6.36 53.49,0.64 77.3,4.89 23.16,4.13 55.52,-1.49 79.38,5.05 23.02,6.31 128.51,1.14 160.17,1.33 15.81,0.1 21.78,-3.46 36.98,-3.33 13.78,0.11 27.58,0.01 41.36,0.01 28.82,0 50.73,-3.36 80.52,-3.31 15.61,0.03 24.05,-3.38 36.94,-3.4 11.85,-0.03 30.19,1.81 41.24,-0.16 12.29,-2.19 21.78,-3.08 37.16,-3.06 34.56,0.01 77.65,-6.77 117.51,-6.63 16.55,0.05 23.71,-3.45 39.16,-3.33l119.7 -3.29c15.2,0.13 21.18,-3.42 36.98,-3.33 119.45,0.71 239.57,-9.94 359.07,-9.94l160.16 -4.65c47.49,-13.02 112.03,9.54 158.86,-3.31 25.55,-7.02 128.31,-1.99 161.91,-1.99 29.06,0 50.49,-3.3 78.34,-3.3l648.5 0c24.69,0 56.76,-2.76 80.53,-0.02l95.73 0c36.72,-4.23 179.53,1.19 224.24,0.14l97.86 -3.43c8.2,-0.94 8.61,-3.39 19.51,-3.41 13.8,-0.03 27.63,0.03 41.43,0.13l189.78 -15.89c6.28,-1.49 12.81,-0.47 19.19,-0.59l76.05 -10.11c10.92,-0.27 11.31,-2.23 19.62,-3.28 0,-28.46 -10.54,-53.68 -19.99,-75.57 -11.77,-27.27 -23.22,-54.67 -37.11,-79.32 -3.6,-6.37 -4.06,-8.47 -7.65,-14.86 -5.85,-10.39 -9.83,-18.92 -15.36,-29.62 -12.87,-24.92 -29.24,-46.53 -42.14,-71.67l-24.41 -42.34c-4.71,-9.64 -11.41,-18.43 -17.08,-27.01l-17.39 -29.85c-12.52,-18.93 -23.43,-35.65 -35.95,-54.59l-34.81 -56.34c-7.03,-10.61 -9.61,-18.17 -16.29,-28.2 -24.83,-37.33 -56.23,-98.18 -84.92,-142.37l-108.22 -159.92 -53.08 -55.01c-11.84,-10.49 -25.71,-20.11 -40.51,-20.71 -82.03,-1.67 -163.4,-6.74 -245.9,-6.68 -574.2,0.45 -1150.1,25.92 -1723.52,26.37 -165.48,0.13 -330.87,0.96 -496.17,-2.68 -161.06,-3.53 -325.39,-4.64 -485.31,-19.45 -185.12,-17.14 -377.25,-16.57 -547.42,-115.25 -78.2,-45.35 -96.54,-44.81 -165.29,-126.32 -29.18,-34.61 -48.37,-90.12 -61.98,-94.6 -13.01,14.37 -12.06,48.38 -21.76,65.85l-0.02 0.04z"/>
   <path class="fil4" d="M3736.93 5450.59c-27.85,91.58 -57.37,211.2 -82.69,305.59 -45.51,169.64 -100.85,445.05 -115.41,629.31l-8.63 122.69c-0.59,12.6 -1.89,8.59 -2.26,23.06 -1.56,59.95 -3.74,156.24 -2.18,215.57 0.38,14.4 1.64,10.46 2.26,23.06l20.11 267.54c6.54,58.77 16.68,118.43 26.01,175.73 13.78,84.53 32.58,163.3 48.73,250.46 17,91.65 29.81,158.06 50.08,248.41l19.68 76.07c26.1,80.05 24.19,88.8 64.23,170.56 6.24,12.74 11.55,18.85 17.05,30.35 11.44,23.91 50.97,67.08 70.3,81.81 11.84,9.01 55.46,35.04 67.51,28.78 61.71,-32.05 128.32,-144.29 168.16,-227.86 2.81,-5.9 4.42,-10.52 7.03,-15.8 19.18,-38.7 32.71,-76.42 49.13,-117.33 22.55,-56.17 41.32,-122.69 59.31,-181.37 9.77,-31.88 3.08,-16.46 16.72,-54.05l76.13 -205.44c3.09,-8.94 4.2,-9.81 7.27,-18.75 11.95,-34.6 28.53,-68.69 40.6,-100.53l40.2 -101.12c4.74,-11.66 8.31,-21.44 13.06,-33.13l78.33 -205.41c2.86,-6.93 3.51,-9.48 6.23,-17.02l132.75 -367.73c4.24,-12.92 7.61,-23.46 11.58,-35.37l124.07 -407.69 -5.44 -4.71c-3.63,-86 -29.96,-144.49 -49.42,-202.93 -12.99,-39.02 -40.99,-120.66 -59.88,-154.12 -44.54,-78.9 -61.11,-89.51 -113.14,-139.18 -9.78,-9.35 -19.29,-16.2 -30.55,-23.29 -10.05,-6.34 -19.46,-14.1 -31.97,-21.15 -127.08,-71.6 -250.84,-88.94 -399.46,-87.36 -76.39,0.81 -173.89,15.09 -248.31,39.97 -12.4,4.15 -25.01,9.47 -36.23,14.49 -11.52,5.17 -21.62,14.12 -31,17.88l0.04 0.01z"/>
   <path class="fil5" d="M4302.88 2377.09l-17.72 119.05c-43.22,325.26 36.56,500.56 250.5,612.87 170.7,89.62 422.17,92.17 609.53,63.85 29.59,-4.47 60.02,-10.79 88.94,-14.25l64.42 -209.73c6.89,-25.79 13.01,-46.87 19.79,-72.56 38.02,-144.17 75.31,-316.48 95.89,-473.52 14.65,-111.79 20.27,-176.34 28.65,-287.66l2.32 -75.96c1.04,-20.91 2.22,-5.96 2.19,-46.36l0 -159.01c0,-79.65 -8.5,-201.56 -17.16,-281.96l-21.11 -173.25c-11.76,-77.33 -27.73,-169.96 -44.14,-244.22 -25.85,-116.95 -69.26,-289.55 -106.17,-401.54 -4.61,-13.97 -8.01,-20.82 -12.37,-34.19 -21.53,-65.84 -52.66,-128.9 -93.23,-169.48 -10.87,-10.86 -32.99,-26.34 -49.56,-27.23 -39.27,-2.15 -60.97,11.12 -91.45,39.92 -4.35,4.1 -4.91,6 -10.02,11.25 -29.77,30.65 -77.67,111.42 -98.85,157.61l-128.33 321.44 -116.09 340.07c-3.92,11.34 -8.48,20.92 -12.3,30.97l-138.89 355.08c-28.84,70.96 -130.71,348.73 -144.75,399.13l-51.26 180.38c-2.78,12.8 -5.64,28.26 -8.83,39.33l0 -0.03z"/>
   <polygon class="fil5" points="5762.93,6339.21 5765.11,6339.21 5763.3,6335.35 "/>
  </g>
 </g>
</svg>
